# xmcd
# 
# Track frame offsets:
#     150
#     18125
#     35925
#     51955
#     71250
#     88760
#     108287
#     125525
#     144225
#     166767
#     186772
# 
# Disc length: 2658
# 
# Revision: 12
# Processed by: cddbd v1.5.2PL0 Copyright (c) Steve Scherf et al.
# Submitted via: fre:ac v1.0.31
# 
DISCID=8d0a600b
DTITLE=Amy Grant - Heart In Motion
DYEAR=1991
DGENRE=Christian
TTITLE0=Good For Me
TTITLE1=Baby Baby
TTITLE2=Every Heartbeat
TTITLE3=That's What Love Is For
TTITLE4=Ask Me
TTITLE5=Galileo
TTITLE6=You're Not Alone
TTITLE7=Hats
TTITLE8=I Will Remember You
TTITLE9=How Can We See That Far
TTITLE10=Hope Set High
EXTD=
EXTT0=
EXTT1=
EXTT2=
EXTT3=
EXTT4=
EXTT5=
EXTT6=
EXTT7=
EXTT8=
EXTT9=
EXTT10=
PLAYORDER=
